<?xml version="1.0" encoding="UTF-8" standalone="no"?>
<svg
   xmlns:dc="http://purl.org/dc/elements/1.1/"
   xmlns:cc="http://creativecommons.org/ns#"
   xmlns:rdf="http://www.w3.org/1999/02/22-rdf-syntax-ns#"
   xmlns:svg="http://www.w3.org/2000/svg"
   xmlns="http://www.w3.org/2000/svg"
   xmlns:sodipodi="http://sodipodi.sourceforge.net/DTD/sodipodi-0.dtd"
   xmlns:inkscape="http://www.inkscape.org/namespaces/inkscape"
   inkscape:version="1.0 (4035a4fb49, 2020-05-01)"
   sodipodi:docname="chrome-pnkcfpnngfokcnnijgkllghjlhkailce-Default.svg"
   id="svg29"
   viewBox="0 0 48 48"
   version="1.1">
  <metadata
     id="metadata33">
    <rdf:RDF>
      <cc:Work
         rdf:about="">
        <dc:format>image/svg+xml</dc:format>
        <dc:type
           rdf:resource="http://purl.org/dc/dcmitype/StillImage" />
        <dc:title></dc:title>
      </cc:Work>
    </rdf:RDF>
  </metadata>
  <sodipodi:namedview
     inkscape:current-layer="svg29"
     inkscape:window-maximized="0"
     inkscape:window-y="36"
     inkscape:window-x="358"
     inkscape:cy="10.652446"
     inkscape:cx="-0.12395714"
     inkscape:zoom="6.5775662"
     showgrid="false"
     id="namedview31"
     inkscape:window-height="935"
     inkscape:window-width="1331"
     inkscape:pageshadow="2"
     inkscape:pageopacity="0"
     guidetolerance="10"
     gridtolerance="10"
     objecttolerance="10"
     borderopacity="1"
     bordercolor="#666666"
     pagecolor="#ffffff" />
  <defs
     id="defs7">
    <linearGradient
       gradientUnits="userSpaceOnUse"
       y2="47"
       y1="1"
       x2="0"
       id="bg">
      <stop
         id="stop2"
         offset="0"
         style="stop-color:#f64523;stop-opacity:1" />
      <stop
         id="stop4"
         offset="1"
         style="stop-color:#95005f;stop-opacity:1" />
    </linearGradient>
  </defs>
  <path
     id="path9"
     style="opacity:.05"
     d="m36.31 5c5.859 4.062 9.688 10.831 9.688 18.5 0 12.426-10.07 22.5-22.5 22.5-7.669 0-14.438-3.828-18.5-9.688 1.037 1.822 2.306 3.499 3.781 4.969 4.085 3.712 9.514 5.969 15.469 5.969 12.703 0 23-10.298 23-23 0-5.954-2.256-11.384-5.969-15.469-1.469-1.475-3.147-2.744-4.969-3.781zm4.969 3.781c3.854 4.113 6.219 9.637 6.219 15.719 0 12.703-10.297 23-23 23-6.081 0-11.606-2.364-15.719-6.219 4.16 4.144 9.883 6.719 16.219 6.719 12.703 0 23-10.298 23-23 0-6.335-2.575-12.06-6.719-16.219z" />
  <path
     id="path11"
     style="opacity:.1"
     d="m41.28 8.781c3.712 4.085 5.969 9.514 5.969 15.469 0 12.703-10.297 23-23 23-5.954 0-11.384-2.256-15.469-5.969 4.113 3.854 9.637 6.219 15.719 6.219 12.703 0 23-10.298 23-23 0-6.081-2.364-11.606-6.219-15.719z" />
  <path
     id="path13"
     style="opacity:.2"
     d="m31.25 2.375c8.615 3.154 14.75 11.417 14.75 21.13 0 12.426-10.07 22.5-22.5 22.5-9.708 0-17.971-6.135-21.12-14.75a23 23 0 0 0 44.875-7 23 23 0 0 0-16-21.875z" />
  <circle
     id="circle15"
     style="fill:url(#bg)"
     r="23"
     cy="24"
     cx="24" />
  <path
     id="path17"
     style="opacity:.1"
     d="m40.03 7.531c3.712 4.084 5.969 9.514 5.969 15.469 0 12.703-10.297 23-23 23-5.954 0-11.384-2.256-15.469-5.969 4.178 4.291 10.01 6.969 16.469 6.969 12.703 0 23-10.298 23-23 0-6.462-2.677-12.291-6.969-16.469z" />
  <path
     id="path858-3"
     d="m 8.9616007,20.387113 c -0.172,0.12 -0.271,0.313 -0.271,0.521 v 0.005 c 0,0.089 0.021,0.172 0.052,0.255 l 3.0680003,6.938 c 0.135,0.307 0.484,0.458 0.802,0.349 2.005,-0.719 8.947999,-2.979 13.442999,-1.76 0,0 -4.51,0.26 -8.582999,3.458 -0.229,0.182 -0.307,0.495 -0.193,0.76 l 1.375,3.104 0.525999,1.234 c 0.125,0.297 0.526,0.333 0.703,0.063 0.953,-1.432 2.557,-2.146 4.099,-2.771 1.578,-0.646 3.224,-1.115 4.906,-1.401 1.792,-0.302 3.615,-0.38 5.427,-0.224 0.297,0.031 0.578,-0.156 0.667,-0.443 l 1.385,-4.427 c 0.083,-0.26 -0.01,-0.542 -0.234,-0.703 -1.542,-1.12 -7.656,-4.875 -18.400999,-3.365 0,0 9.166999,-5.271 20.812999,0.521 0.354,0.172 0.781,-0.01 0.896,-0.385 l 1.219,-3.901 c 0.021,-0.057 0.031,-0.12 0.031,-0.182 v -0.021 c -0.005,-0.224 -0.125,-0.432 -0.323,-0.547 -1.464,-0.823 -6.411,-3.302 -13.214,-3.302 -5.219,0 -11.525999,1.453 -18.1929993,6.224 z"
     style="fill:#000000;fill-opacity:0.1;stroke:none;stroke-opacity:1" />
  <path
     style="fill:#ffffff;fill-opacity:1;stroke:none;stroke-opacity:1"
     d="m 8.2358288,19.742979 c -0.172,0.12 -0.271,0.313 -0.271,0.521 v 0.005 c 0,0.089 0.021,0.172 0.052,0.255 l 3.0680002,6.938 c 0.135,0.307 0.484,0.458 0.802,0.349 2.005,-0.719 8.948,-2.979 13.443,-1.76 0,0 -4.51,0.26 -8.583,3.458 -0.229,0.182 -0.307,0.495 -0.193,0.76 l 1.375,3.104 0.526,1.234 c 0.125,0.297 0.526,0.333 0.703,0.063 0.953,-1.432 2.557,-2.146 4.099,-2.771 1.578,-0.646 3.224,-1.115 4.906,-1.401 1.792,-0.302 3.615,-0.38 5.427,-0.224 0.297,0.031 0.578,-0.156 0.667,-0.443 l 1.385,-4.427 c 0.083,-0.26 -0.01,-0.542 -0.234,-0.703 -1.542,-1.12 -7.656,-4.875 -18.401,-3.365 0,0 9.167,-5.271 20.813,0.521 0.354,0.172 0.781,-0.01 0.896,-0.385 l 1.219,-3.901 c 0.021,-0.057 0.031,-0.12 0.031,-0.182 v -0.021 c -0.005,-0.224 -0.125,-0.432 -0.323,-0.547 -1.464,-0.823 -6.411,-3.302 -13.214,-3.302 -5.219,0 -11.526,1.453 -18.1930002,6.224 z"
     id="path858" />
</svg>
