<?xml version="1.0" encoding="UTF-8" standalone="no"?>
<svg
   xmlns:dc="http://purl.org/dc/elements/1.1/"
   xmlns:cc="http://creativecommons.org/ns#"
   xmlns:rdf="http://www.w3.org/1999/02/22-rdf-syntax-ns#"
   xmlns:svg="http://www.w3.org/2000/svg"
   xmlns="http://www.w3.org/2000/svg"
   id="svg49"
   version="1.1"
   viewBox="0 0 48 48">
  <metadata
     id="metadata53">
    <rdf:RDF>
      <cc:Work
         rdf:about="">
        <dc:format>image/svg+xml</dc:format>
        <dc:type
           rdf:resource="http://purl.org/dc/dcmitype/StillImage" />
        <dc:title></dc:title>
      </cc:Work>
    </rdf:RDF>
  </metadata>
  <defs
     id="defs7">
    <linearGradient
       gradientTransform="matrix(0,-1,1,0,-1.5e-6,47.999998)"
       gradientUnits="userSpaceOnUse"
       x2="47"
       x1="1"
       id="linearGradient3764">
      <stop
         id="stop2"
         style="stop-color:#e1e1e1;stop-opacity:1" />
      <stop
         id="stop4"
         style="stop-color:#ebebeb;stop-opacity:1"
         offset="1" />
    </linearGradient>
  </defs>
  <g
     id="g15">
    <path
       id="path9"
       style="opacity:0.05"
       d="m 36.31 5 c 5.859 4.062 9.688 10.831 9.688 18.5 c 0 12.426 -10.07 22.5 -22.5 22.5 c -7.669 0 -14.438 -3.828 -18.5 -9.688 c 1.037 1.822 2.306 3.499 3.781 4.969 c 4.085 3.712 9.514 5.969 15.469 5.969 c 12.703 0 23 -10.298 23 -23 c 0 -5.954 -2.256 -11.384 -5.969 -15.469 c -1.469 -1.475 -3.147 -2.744 -4.969 -3.781 z m 4.969 3.781 c 3.854 4.113 6.219 9.637 6.219 15.719 c 0 12.703 -10.297 23 -23 23 c -6.081 0 -11.606 -2.364 -15.719 -6.219 c 4.16 4.144 9.883 6.719 16.219 6.719 c 12.703 0 23 -10.298 23 -23 c 0 -6.335 -2.575 -12.06 -6.719 -16.219 z" />
    <path
       id="path11"
       style="opacity:0.1"
       d="m 41.28 8.781 c 3.712 4.085 5.969 9.514 5.969 15.469 c 0 12.703 -10.297 23 -23 23 c -5.954 0 -11.384 -2.256 -15.469 -5.969 c 4.113 3.854 9.637 6.219 15.719 6.219 c 12.703 0 23 -10.298 23 -23 c 0 -6.081 -2.364 -11.606 -6.219 -15.719 z" />
    <path
       id="path13"
       style="opacity:0.2"
       d="m 31.25 2.375 c 8.615 3.154 14.75 11.417 14.75 21.13 c 0 12.426 -10.07 22.5 -22.5 22.5 c -9.708 0 -17.971 -6.135 -21.12 -14.75 a 23 23 0 0 0 44.875 -7 a 23 23 0 0 0 -16 -21.875 z" />
  </g>
  <g
     id="g19">
    <path
       id="path17"
       style="fill:url(#linearGradient3764);fill-opacity:1"
       d="m 24 1 c 12.703 0 23 10.297 23 23 c 0 12.703 -10.297 23 -23 23 -12.703 0 -23 -10.297 -23 -23 0 -12.703 10.297 -23 23 -23 z" />
  </g>
  <g
     id="g47">
    <path
       id="path45"
       style="opacity:0.1"
       d="m 40.03 7.531 c 3.712 4.084 5.969 9.514 5.969 15.469 0 12.703 -10.297 23 -23 23 c -5.954 0 -11.384 -2.256 -15.469 -5.969 4.178 4.291 10.01 6.969 16.469 6.969 c 12.703 0 23 -10.298 23 -23 0 -6.462 -2.677 -12.291 -6.969 -16.469 z" />
  </g>
  <g
     id="g3813">
    <path
       id="path4"
       d="m 29.380114,34.379462 c -1.085417,3.146875 -2.594792,6.50625 -4.498958,9.923959 4.584375,-0.198959 8.784375,-1.8625 12.134375,-4.557292 0.88125,-2.644792 1.45625,-5.276042 1.695833,-7.826042 1.551042,-0.208333 3.128125,-0.55625 4.719792,-1.026042 0.728125,-1.921875 1.180208,-3.983333 1.30625,-6.130208 -0.894792,0.226041 -1.777083,0.397916 -2.644792,0.5375 -3.516666,3.864583 -7.842708,6.975 -12.7125,9.078125 z"
       style="fill:#1e75ba;stroke-width:1.04166675" />
    <path
       id="path6"
       d="m 42.093656,25.300295 c -1.184375,0.189583 -2.346875,0.311458 -3.467708,0.347917 -0.108334,-0.845834 -0.276042,-1.663542 -0.469792,-2.46875 -0.488542,-2.016667 -1.24375,-3.879167 -2.246875,-5.547917 -1.501042,1.333333 -3.101042,2.6 -4.779167,3.802083 0.189583,1.008334 0.280208,2.120834 0.239583,3.336459 -1.184375,-0.366667 -2.219791,-0.840625 -3.10625,-1.3875 -0.6875,0.434375 -1.3875,0.859375 -2.097916,1.265625 -1.315625,0.759375 -2.648959,1.45625 -3.987501,2.102083 0.09062,0.104167 0.171875,0.2125 0.266667,0.316667 1.279167,1.446875 2.826042,2.567708 4.566667,3.390625 1.017708,0.479167 2.097917,0.859375 3.2375,1.130208 -0.24375,0.908334 -0.5375,1.835417 -0.863542,2.785417 4.864584,-2.096875 9.190626,-5.207292 12.708334,-9.072917 z"
       style="fill:#01828e;stroke-width:1.04166675" />
    <path
       id="path8"
       d="m 27.793656,10.882586 c -0.307292,-0.108333 -0.614584,-0.216666 -0.927084,-0.307291 1.736459,-1.5458338 4.294792,-2.8802089 7.771876,-3.8291672 0.357291,-0.094792 0.71875,-0.2489584 1.085416,-0.4250001 -0.619791,-0.425 -1.270833,-0.809375 -1.935417,-1.1666667 -1.763541,-0.940625 -3.680208,-1.6229167 -5.696875,-2.0302084 -0.813541,-0.1625 -1.641666,-0.29375 -2.486458,-0.3614583 -0.732292,0.8541667 -1.40625,1.6958334 -2.052084,2.5270834 -1.216666,1.5781251 -2.279166,3.1239585 -3.10625,4.6479168 -1.311458,0.094791 -2.644791,0.3260415 -3.9875,0.6739585 -4.204167,1.085417 -8.48125,3.363542 -12.3739585,6.664583 -0.1270833,0.415625 -0.2354166,0.832292 -0.3395833,1.257292 -0.39375,1.594792 -0.6104167,3.263542 -0.6104167,4.98125 0,1.808334 0.2489583,3.548959 0.6875,5.217709 0.1760417,0.664583 0.3708334,1.319792 0.60625,1.957292 C 8.999905,24.944045 13.914489,20.544045 18.295739,18.10342 c 0.0094,0.167708 0.03646,0.330208 0.05417,0.492708 2.160417,-3.884375 6.857292,-4.385417 9.443751,-7.713542 z"
       style="fill:#4aae52;stroke-width:1.04166675" />
    <path
       id="path10"
       d="m 31.365531,12.723211 c -0.06771,-0.04479 -0.121875,-0.09896 -0.189584,-0.144791 -1.066666,-0.714584 -2.202083,-1.270834 -3.382291,-1.695834 -2.586459,3.322917 -7.283334,3.829167 -9.444792,7.713542 0.158333,1.605209 0.6375,3.214584 1.514583,4.841667 0.592708,1.09375 1.360417,2.196875 2.314583,3.313542 1.338542,-0.646875 2.671876,-1.338542 3.987501,-2.097917 0.709375,-0.411458 1.410416,-0.836458 2.097916,-1.270833 -0.682291,-0.425 -1.284375,-0.886459 -1.754166,-1.392709 -0.954167,-1.039583 -1.632292,-2.152083 -2.038542,-3.291667 -0.311458,-0.886458 -0.465625,-1.790625 -0.425,-2.689583 1.107292,-0.140625 2.115625,-0.05417 3.029167,0.226042 0.496875,0.148958 0.977083,0.34375 1.40625,0.633333 1.396875,0.935417 2.260416,2.51875 2.648958,4.566667 1.677083,-1.203125 3.278125,-2.46875 4.779167,-3.802084 -1.166667,-1.939583 -2.671875,-3.6125 -4.54375,-4.909375 z"
       style="fill:#209673;stroke-width:1.04166675" />
  </g>
</svg>
