<?xml version="1.0" encoding="UTF-8" standalone="no"?>
<svg
   xmlns:dc="http://purl.org/dc/elements/1.1/"
   xmlns:cc="http://creativecommons.org/ns#"
   xmlns:rdf="http://www.w3.org/1999/02/22-rdf-syntax-ns#"
   xmlns:svg="http://www.w3.org/2000/svg"
   xmlns="http://www.w3.org/2000/svg"
   xmlns:sodipodi="http://sodipodi.sourceforge.net/DTD/sodipodi-0.dtd"
   xmlns:inkscape="http://www.inkscape.org/namespaces/inkscape"
   id="svg29"
   version="1.1"
   viewBox="0 0 48 48"
   sodipodi:docname="abricotine.svg"
   inkscape:version="0.92.2 (5c3e80d, 2017-08-06)">
  <sodipodi:namedview
     pagecolor="#ffffff"
     bordercolor="#666666"
     borderopacity="1"
     objecttolerance="10"
     gridtolerance="10"
     guidetolerance="10"
     inkscape:pageopacity="0"
     inkscape:pageshadow="2"
     inkscape:window-width="1170"
     inkscape:window-height="721"
     id="namedview20"
     showgrid="false"
     inkscape:zoom="4.9166667"
     inkscape:cx="-14.236863"
     inkscape:cy="8.0701591"
     inkscape:window-x="0"
     inkscape:window-y="0"
     inkscape:window-maximized="0"
     inkscape:current-layer="g19" />
  <metadata
     id="metadata33">
    <rdf:RDF>
      <cc:Work
         rdf:about="">
        <dc:format>image/svg+xml</dc:format>
        <dc:type
           rdf:resource="http://purl.org/dc/dcmitype/StillImage" />
        <dc:title />
      </cc:Work>
    </rdf:RDF>
  </metadata>
  <defs
     id="defs7">
    <linearGradient
       id="linearGradient3764"
       x1="1"
       x2="47"
       gradientTransform="matrix(0 -1 1 0 -1.5e-6 48)"
       gradientUnits="userSpaceOnUse">
      <stop
         id="stop2"
         style="stop-color:#f76f15"
         offset="0" />
      <stop
         id="stop4"
         style="stop-color:#f15a24;stop-opacity:1"
         offset="1" />
    </linearGradient>
  </defs>
  <g
     id="g15">
    <path
       id="path9"
       d="m36.31 5c5.859 4.062 9.688 10.831 9.688 18.5 0 12.426-10.07 22.5-22.5 22.5-7.669 0-14.438-3.828-18.5-9.688 1.037 1.822 2.306 3.499 3.781 4.969 4.085 3.712 9.514 5.969 15.469 5.969 12.703 0 23-10.298 23-23 0-5.954-2.256-11.384-5.969-15.469-1.469-1.475-3.147-2.744-4.969-3.781zm4.969 3.781c3.854 4.113 6.219 9.637 6.219 15.719 0 12.703-10.297 23-23 23-6.081 0-11.606-2.364-15.719-6.219 4.16 4.144 9.883 6.719 16.219 6.719 12.703 0 23-10.298 23-23 0-6.335-2.575-12.06-6.719-16.219z"
       style="opacity:.05" />
    <path
       id="path11"
       d="m41.28 8.781c3.712 4.085 5.969 9.514 5.969 15.469 0 12.703-10.297 23-23 23-5.954 0-11.384-2.256-15.469-5.969 4.113 3.854 9.637 6.219 15.719 6.219 12.703 0 23-10.298 23-23 0-6.081-2.364-11.606-6.219-15.719z"
       style="opacity:.1" />
    <path
       id="path13"
       d="m31.25 2.375c8.615 3.154 14.75 11.417 14.75 21.13 0 12.426-10.07 22.5-22.5 22.5-9.708 0-17.971-6.135-21.12-14.75a23 23 0 0 0 44.875 -7 23 23 0 0 0 -16 -21.875z"
       style="opacity:.2" />
  </g>
  <g
     id="g19">
    <path
       id="path17"
       d="m24 1c12.703 0 23 10.297 23 23s-10.297 23-23 23-23-10.297-23-23 10.297-23 23-23z"
       style="fill:url(#linearGradient3764)" />
    <g
       id="g4596"
       style="fill:none"
       transform="matrix(0.12642017,0,0,0.12642017,8.8937404,4.2027754)">
      <polygon
         id="polygon4560"
         points="0,258.0503 23.572767,234.08284 45.98718,256.45687 45.985344,256.45504 "
         style="fill:#f15a24;fill-rule:nonzero" />
      <path
         id="path4564"
         d="m 164.98183,87.531864 c 7.99099,8.49398 0.10464,28.576996 0.10464,28.576996 0,0 -7.79456,28.39343 -52.42146,65.21291 l -8.3306,-8.17639 56.65101,-57.89931 1.0941,-1.47778 c 1.50715,-2.45622 2.75545,-26.401643 2.90231,-26.236426"
         inkscape:connector-curvature="0"
         style="fill:#999999;fill-rule:nonzero" />
      <path
         id="path4566"
         d="m 164.98183,87.531864 c 7.99099,8.49398 0.10464,28.576996 0.10464,28.576996 0,0 -7.79456,28.39343 -52.42146,65.21291 l -8.3306,-8.17639 56.65101,-57.89931 1.0941,-1.47778 c 1.50715,-2.45622 2.75545,-26.401643 2.90231,-26.236426 z"
         inkscape:connector-curvature="0"
         style="stroke:#ffffff;stroke-width:1.91799998;stroke-linecap:round;stroke-linejoin:round" />
      <path
         id="path4568"
         d="M 92.099191,161.10841 164.86251,87.32259 c 3.69351,4.385588 4.47921,9.110789 3.40714,15.84246 -0.72145,4.66278 -8.77485,13.98101 -8.77485,13.98101 l -55.16039,55.99932"
         inkscape:connector-curvature="0"
         style="fill:#666666;fill-rule:nonzero" />
      <path
         id="path4570"
         d="M 92.099191,161.10841 164.86251,87.32259 c 3.69351,4.385588 4.47921,9.110789 3.40714,15.84246 -0.72145,4.66278 -8.77485,13.98101 -8.77485,13.98101 l -55.16039,55.99932"
         inkscape:connector-curvature="0"
         style="stroke:#ffffff;stroke-width:1.20099998;stroke-linecap:round;stroke-linejoin:round" />
      <path
         id="path4572"
         d="m 164.98183,87.583265 -72.882639,73.526985 0.146859,-0.14319 -0.02754,0.011 -18.082061,-17.81772 C 111.84444,96.255312 136.22493,87.509835 136.22493,87.509835 c 0,0 15.87183,-6.19563 27.19468,-1.387821 0.87015,0.466279 1.24831,0.734297 1.56039,1.463087"
         inkscape:connector-curvature="0"
         style="fill:#ff931e;fill-rule:nonzero" />
      <path
         id="path4574"
         d="m 164.98183,87.583265 -72.882639,73.526985 0.146859,-0.14319 -0.02754,0.011 -18.082061,-17.81772 C 111.84444,96.255312 136.22493,87.509835 136.22493,87.509835 c 0,0 15.87183,-6.19563 27.19468,-1.387821 0.87015,0.466279 1.24831,0.734297 1.56039,1.463087 z"
         inkscape:connector-curvature="0"
         style="stroke:#ffffff;stroke-width:1.91799998;stroke-linecap:round;stroke-linejoin:round" />
      <path
         id="path4576"
         d="m 112.66501,181.31994 c -17.388149,14.32062 -39.641017,36.81581 -69.888543,52.5059 l 6.727996,28.76241 -28.516421,-28.08686 71.109313,-73.39298"
         inkscape:connector-curvature="0"
         style="fill:#999999;fill-rule:nonzero" />
      <path
         id="path4578"
         d="m 112.66501,181.31994 c -17.388149,14.32062 -39.641017,36.81581 -69.888543,52.5059 l 6.727996,28.76241 -28.516421,-28.08686 71.109313,-73.39298"
         inkscape:connector-curvature="0"
         style="stroke:#ffffff;stroke-width:1.91799998;stroke-linecap:round;stroke-linejoin:round" />
      <polygon
         id="polygon4580"
         points="74.622924,143.40085 92.288273,160.99643 51.477885,169.83553 74.231911,143.08326 74.62476,143.40085 "
         style="fill:#f15a24;fill-rule:nonzero" />
      <polygon
         id="polygon4582"
         points="74.622924,143.40085 92.288273,160.99643 51.477885,169.83553 74.231911,143.08326 74.62476,143.40085 "
         style="stroke:#ffffff;stroke-width:1.91799998;stroke-linecap:round;stroke-linejoin:round" />
      <path
         id="path4584"
         d="m 158.02437,66.246432 c -1.73294,15.640525 9.5275,29.720668 25.16802,31.464623 15.62768,1.736612 29.72067,-9.53301 31.46463,-25.168027 1.73845,-15.635017 -9.54035,-29.729846 -25.17354,-31.468294 -15.64236,-1.727434 -29.72434,9.527502 -31.45911,25.171698"
         inkscape:connector-curvature="0"
         style="fill:#999999;fill-rule:nonzero" />
      <path
         id="path4586"
         d="m 158.02437,66.246432 c -1.73294,15.640525 9.5275,29.720668 25.16802,31.464623 15.62768,1.736612 29.72067,-9.53301 31.46463,-25.168027 1.73845,-15.635017 -9.54035,-29.729846 -25.17354,-31.468294 -15.64236,-1.727434 -29.72434,9.527502 -31.45911,25.171698 z"
         inkscape:connector-curvature="0"
         style="stroke:#ffffff;stroke-width:1.91799998;stroke-linecap:round;stroke-linejoin:round" />
      <path
         id="path4588"
         d="m 210.56515,85.138056 c 5.25573,-7.67891 4.98404,-19.166985 3.92849,-22.570451 -1.2942,-4.167135 -4.191,-10.944696 -9.24297,-14.467485 l -26.71372,24.606289 c 0,0 20.53094,22.05828 21.06515,22.131709 0.22212,0.0257 6.16993,-2.698541 10.96305,-9.700062"
         inkscape:connector-curvature="0"
         style="fill:#666666;fill-rule:nonzero" />
      <path
         id="path4590"
         d="m 210.56515,85.138056 c 5.25573,-7.67891 4.98404,-19.166985 3.92849,-22.570451 -1.2942,-4.167135 -4.191,-10.944696 -9.24297,-14.467485 l -26.71372,24.606289 c 0,0 20.53094,22.05828 21.06515,22.131709 0.22212,0.0257 6.16993,-2.698541 10.96305,-9.700062 z m -5.38974,-19.275294 c 0,0 2.5682,6.307611 -0.69024,11.21455 z"
         inkscape:connector-curvature="0"
         style="stroke:#ffffff;stroke-width:1.91799998;stroke-linecap:round;stroke-linejoin:round" />
      <polyline
         id="polyline4592"
         points="104.964073 173.156392 75.4820518 178.402944 93.2777376 159.913347"
         style="fill:#666666;fill-rule:nonzero" />
      <path
         id="path4594"
         d="m 104.96407,173.15639 -29.482018,5.24655 17.795686,-18.48959 m -17.970082,-16.384 37.480354,35.27378"
         inkscape:connector-curvature="0"
         style="stroke:#ffffff;stroke-width:1.91799998;stroke-linecap:round;stroke-linejoin:round" />
    </g>
  </g>
  <g
     id="g23">
    <path
       id="path21"
       d="m40.03 7.531c3.712 4.084 5.969 9.514 5.969 15.469 0 12.703-10.297 23-23 23-5.954 0-11.384-2.256-15.469-5.969 4.178 4.291 10.01 6.969 16.469 6.969 12.703 0 23-10.298 23-23 0-6.462-2.677-12.291-6.969-16.469z"
       style="opacity:.1" />
  </g>
</svg>
