<?xml version="1.0" encoding="UTF-8" standalone="no"?>
<svg
   xmlns:dc="http://purl.org/dc/elements/1.1/"
   xmlns:cc="http://creativecommons.org/ns#"
   xmlns:rdf="http://www.w3.org/1999/02/22-rdf-syntax-ns#"
   xmlns:svg="http://www.w3.org/2000/svg"
   xmlns="http://www.w3.org/2000/svg"
   xmlns:sodipodi="http://sodipodi.sourceforge.net/DTD/sodipodi-0.dtd"
   xmlns:inkscape="http://www.inkscape.org/namespaces/inkscape"
   viewBox="0 0 48 48"
   version="1.1"
   id="svg45"
   sodipodi:docname="yammer.svg"
   inkscape:version="0.92.2 (5c3e80d, 2017-08-06)">
  <metadata
     id="metadata49">
    <rdf:RDF>
      <cc:Work
         rdf:about="">
        <dc:format>image/svg+xml</dc:format>
        <dc:type
           rdf:resource="http://purl.org/dc/dcmitype/StillImage" />
      </cc:Work>
    </rdf:RDF>
  </metadata>
  <sodipodi:namedview
     pagecolor="#ffffff"
     bordercolor="#666666"
     borderopacity="1"
     objecttolerance="10"
     gridtolerance="10"
     guidetolerance="10"
     inkscape:pageopacity="0"
     inkscape:pageshadow="2"
     inkscape:window-width="1920"
     inkscape:window-height="1080"
     id="namedview47"
     showgrid="false"
     inkscape:zoom="3.4766083"
     inkscape:cx="-3.5953159"
     inkscape:cy="25.198183"
     inkscape:window-x="0"
     inkscape:window-y="0"
     inkscape:window-maximized="1"
     inkscape:current-layer="svg45" />
  <defs
     id="defs7">
    <linearGradient
       id="linearGradient3764"
       x1="1"
       x2="47"
       gradientUnits="userSpaceOnUse"
       gradientTransform="matrix(0,-1,1,0,-1.5e-6,47.999998)">
      <stop
         style="stop-color:#3e82c2;stop-opacity:1"
         id="stop2" />
      <stop
         offset="1"
         style="stop-color:#4d8bc7;stop-opacity:1"
         id="stop4" />
    </linearGradient>
  </defs>
  <g
     id="g15">
    <path
       d="m 36.31 5 c 5.859 4.062 9.688 10.831 9.688 18.5 c 0 12.426 -10.07 22.5 -22.5 22.5 c -7.669 0 -14.438 -3.828 -18.5 -9.688 c 1.037 1.822 2.306 3.499 3.781 4.969 c 4.085 3.712 9.514 5.969 15.469 5.969 c 12.703 0 23 -10.298 23 -23 c 0 -5.954 -2.256 -11.384 -5.969 -15.469 c -1.469 -1.475 -3.147 -2.744 -4.969 -3.781 z m 4.969 3.781 c 3.854 4.113 6.219 9.637 6.219 15.719 c 0 12.703 -10.297 23 -23 23 c -6.081 0 -11.606 -2.364 -15.719 -6.219 c 4.16 4.144 9.883 6.719 16.219 6.719 c 12.703 0 23 -10.298 23 -23 c 0 -6.335 -2.575 -12.06 -6.719 -16.219 z"
       style="opacity:0.05"
       id="path9" />
    <path
       d="m 41.28 8.781 c 3.712 4.085 5.969 9.514 5.969 15.469 c 0 12.703 -10.297 23 -23 23 c -5.954 0 -11.384 -2.256 -15.469 -5.969 c 4.113 3.854 9.637 6.219 15.719 6.219 c 12.703 0 23 -10.298 23 -23 c 0 -6.081 -2.364 -11.606 -6.219 -15.719 z"
       style="opacity:0.1"
       id="path11" />
    <path
       d="m 31.25 2.375 c 8.615 3.154 14.75 11.417 14.75 21.13 c 0 12.426 -10.07 22.5 -22.5 22.5 c -9.708 0 -17.971 -6.135 -21.12 -14.75 a 23 23 0 0 0 44.875 -7 a 23 23 0 0 0 -16 -21.875 z"
       style="opacity:0.2"
       id="path13" />
  </g>
  <g
     id="g19"
     style="fill:#0090bd;fill-opacity:1">
    <path
       d="m 24 1 c 12.703 0 23 10.297 23 23 c 0 12.703 -10.297 23 -23 23 -12.703 0 -23 -10.297 -23 -23 0 -12.703 10.297 -23 23 -23 z"
       style="fill:#0090bd;fill-opacity:1"
       id="path17" />
  </g>
  <g
     id="g43">
    <path
       d="m 40.03 7.531 c 3.712 4.084 5.969 9.514 5.969 15.469 0 12.703 -10.297 23 -23 23 c -5.954 0 -11.384 -2.256 -15.469 -5.969 4.178 4.291 10.01 6.969 16.469 6.969 c 12.703 0 23 -10.298 23 -23 0 -6.462 -2.677 -12.291 -6.969 -16.469 z"
       style="opacity:0.1"
       id="path41" />
  </g>
  <g
     transform="matrix(0.04293914,0,0,0.04293914,-15.337006,-10.887919)"
     style="fill:#0f0f0f;fill-opacity:0.11872146"
     id="g905">
    <path
       style="fill:#0f0f0f;fill-opacity:0.11872146"
       id="path897"
       d="m 1083.3007,840.10548 c 53.4843,11.4541 108.2455,15.7644 162.6875,19.375 18.9799,1.3595 36.3647,-15.4832 35.4688,-33.875 0.8959,-18.3917 -16.4889,-35.2344 -35.4688,-33.8749 -54.442,3.6105 -109.2032,7.9208 -162.6875,19.3749 -9.4627,1.9198 -32.8535,4.4007 -32.8534,14.5 10e-5,10.0994 23.3907,12.5802 32.8534,14.5 z"
       inkscape:connector-curvature="0" />
    <path
       style="color:#000000;font-style:normal;font-variant:normal;font-weight:normal;font-stretch:normal;font-size:medium;line-height:normal;font-family:Sans;-inkscape-font-specification:Sans;text-indent:0;text-align:start;text-decoration:none;text-decoration-line:none;letter-spacing:normal;word-spacing:normal;text-transform:none;writing-mode:lr-tb;direction:ltr;baseline-shift:baseline;text-anchor:start;display:inline;overflow:visible;visibility:visible;fill:#0f0f0f;fill-opacity:0.11872146;stroke:none;stroke-width:64;marker:none;enable-background:accumulate"
       id="path899"
       d="m 642.1875,537.625 c -9.984,0.22473 -19.79459,5.39226 -25.5625,13.5625 -6.15244,8.71492 -7.50926,20.58299 -3.5,30.46875 0,0 42.75299,109.84744 86.90625,222.5625 21.43981,54.73184 43.1257,109.91645 60.5,153.78125 -5.41702,13.61368 -10.40423,26.12959 -14.28125,35.71875 -3.40707,7.89685 -4.54298,11.28055 -7.67536,17.84965 -7.83241,15.335 -24.02908,28.0367 -39.16839,28.9316 -25.84113,2.0526 -53.625,3.8125 -53.625,3.8125 -8.41132,0.4628 -16.56266,4.4198 -22.15625,10.7187 -5.59358,6.299 -8.56595,14.8742 -8.03125,23.2813 0.53469,8.4071 4.55973,16.523 10.90625,22.0625 6.34652,5.5395 14.94158,8.4191 23.34375,7.8125 25.94766,-0.175 33.00079,0.7045 65.59375,-4.5625 48.77861,-12.8313 73.69307,-45.2028 90.15625,-85.9375 5.78393,-14.3056 13.37905,-33.36826 22.1875,-55.59375 17.6169,-44.45098 40.04837,-101.51747 62.125,-157.875 44.15326,-112.71506 86.90625,-222.5625 86.90625,-222.5625 4.00926,-9.88576 2.65244,-21.75383 -3.5,-30.46875 -6.15244,-8.71492 -16.90497,-13.99974 -27.5625,-13.53125 -6.23012,0.2768 -12.36348,2.42477 -17.40625,6.09375 -5.04277,3.66898 -8.97565,8.8449 -11.15625,14.6875 0,0 -42.75432,109.80559 -86.875,222.4375 -11.9778,30.57711 -23.99154,61.18237 -35.34375,90.03125 C 783.56606,841.92639 771.73689,811.7944 759.625,780.875 715.50432,668.24309 672.75,558.4375 672.75,558.4375 c -2.1806,-5.8426 -6.11348,-11.01852 -11.15625,-14.6875 -5.04277,-3.66898 -11.17613,-5.81695 -17.40625,-6.09375 -0.6661,-0.0293 -1.3344,-0.0462 -2,-0.0312 z"
       inkscape:connector-curvature="0" />
    <path
       style="fill:#0f0f0f;fill-opacity:0.11872146"
       id="path901"
       d="m 1021.5959,944.27115 c 39.8565,37.45963 84.4999,69.46485 129.2319,100.70615 15.5427,10.9778 39.132,5.5508 47.8752,-10.6547 10.2767,-15.2789 4.1055,-38.68451 -12.8431,-47.33503 -48.4659,-25.06048 -97.5668,-49.68689 -149.2687,-67.53861 -9.0922,-3.24973 -30.3961,-13.22114 -35.6182,-4.57671 -5.22205,8.6445 13.516,22.86279 20.6229,29.3989 z"
       inkscape:connector-curvature="0" />
    <path
       style="fill:#0f0f0f;fill-opacity:0.11872146"
       id="path903"
       d="m 1021.5959,706.93987 c 39.8565,-37.45959 84.4999,-69.4648 129.2319,-100.7061 15.5427,-10.9778 39.132,-5.5508 47.8752,10.6547 10.2767,15.2789 4.1055,38.6845 -12.8431,47.33502 -48.4659,25.06048 -97.5668,49.68688 -149.2687,67.53858 -9.0922,3.2498 -30.3961,13.2212 -35.6182,4.5767 -5.22205,-8.6445 13.516,-22.8627 20.6229,-29.3989 z"
       inkscape:connector-curvature="0" />
  </g>
  <g
     id="g24870"
     style="fill:#ffffff;fill-opacity:1"
     transform="matrix(0.04293914,0,0,0.04293914,-16.186459,-11.377827)">
    <path
       inkscape:connector-curvature="0"
       d="m 1083.3007,840.10548 c 53.4843,11.4541 108.2455,15.7644 162.6875,19.375 18.9799,1.3595 36.3647,-15.4832 35.4688,-33.875 0.8959,-18.3917 -16.4889,-35.2344 -35.4688,-33.8749 -54.442,3.6105 -109.2032,7.9208 -162.6875,19.3749 -9.4627,1.9198 -32.8535,4.4007 -32.8534,14.5 10e-5,10.0994 23.3907,12.5802 32.8534,14.5 z"
       id="path24860"
       style="fill:#ffffff;fill-opacity:1" />
    <path
       inkscape:connector-curvature="0"
       d="m 642.1875,537.625 c -9.984,0.22473 -19.79459,5.39226 -25.5625,13.5625 -6.15244,8.71492 -7.50926,20.58299 -3.5,30.46875 0,0 42.75299,109.84744 86.90625,222.5625 21.43981,54.73184 43.1257,109.91645 60.5,153.78125 -5.41702,13.61368 -10.40423,26.12959 -14.28125,35.71875 -3.40707,7.89685 -4.54298,11.28055 -7.67536,17.84965 -7.83241,15.335 -24.02908,28.0367 -39.16839,28.9316 -25.84113,2.0526 -53.625,3.8125 -53.625,3.8125 -8.41132,0.4628 -16.56266,4.4198 -22.15625,10.7187 -5.59358,6.299 -8.56595,14.8742 -8.03125,23.2813 0.53469,8.4071 4.55973,16.523 10.90625,22.0625 6.34652,5.5395 14.94158,8.4191 23.34375,7.8125 25.94766,-0.175 33.00079,0.7045 65.59375,-4.5625 48.77861,-12.8313 73.69307,-45.2028 90.15625,-85.9375 5.78393,-14.3056 13.37905,-33.36826 22.1875,-55.59375 17.6169,-44.45098 40.04837,-101.51747 62.125,-157.875 44.15326,-112.71506 86.90625,-222.5625 86.90625,-222.5625 4.00926,-9.88576 2.65244,-21.75383 -3.5,-30.46875 -6.15244,-8.71492 -16.90497,-13.99974 -27.5625,-13.53125 -6.23012,0.2768 -12.36348,2.42477 -17.40625,6.09375 -5.04277,3.66898 -8.97565,8.8449 -11.15625,14.6875 0,0 -42.75432,109.80559 -86.875,222.4375 -11.9778,30.57711 -23.99154,61.18237 -35.34375,90.03125 C 783.56606,841.92639 771.73689,811.7944 759.625,780.875 715.50432,668.24309 672.75,558.4375 672.75,558.4375 c -2.1806,-5.8426 -6.11348,-11.01852 -11.15625,-14.6875 -5.04277,-3.66898 -11.17613,-5.81695 -17.40625,-6.09375 -0.6661,-0.0293 -1.3344,-0.0462 -2,-0.0312 z"
       id="path24805"
       style="color:#000000;font-style:normal;font-variant:normal;font-weight:normal;font-stretch:normal;font-size:medium;line-height:normal;font-family:Sans;-inkscape-font-specification:Sans;text-indent:0;text-align:start;text-decoration:none;text-decoration-line:none;letter-spacing:normal;word-spacing:normal;text-transform:none;writing-mode:lr-tb;direction:ltr;baseline-shift:baseline;text-anchor:start;display:inline;overflow:visible;visibility:visible;fill:#ffffff;fill-opacity:1;stroke:none;stroke-width:64;marker:none;enable-background:accumulate" />
    <path
       inkscape:connector-curvature="0"
       d="m 1021.5959,944.27115 c 39.8565,37.45963 84.4999,69.46485 129.2319,100.70615 15.5427,10.9778 39.132,5.5508 47.8752,-10.6547 10.2767,-15.2789 4.1055,-38.68451 -12.8431,-47.33503 -48.4659,-25.06048 -97.5668,-49.68689 -149.2687,-67.53861 -9.0922,-3.24973 -30.3961,-13.22114 -35.6182,-4.57671 -5.22205,8.6445 13.516,22.86279 20.6229,29.3989 z"
       id="path24858"
       style="fill:#ffffff;fill-opacity:1" />
    <path
       inkscape:connector-curvature="0"
       d="m 1021.5959,706.93987 c 39.8565,-37.45959 84.4999,-69.4648 129.2319,-100.7061 15.5427,-10.9778 39.132,-5.5508 47.8752,10.6547 10.2767,15.2789 4.1055,38.6845 -12.8431,47.33502 -48.4659,25.06048 -97.5668,49.68688 -149.2687,67.53858 -9.0922,3.2498 -30.3961,13.2212 -35.6182,4.5767 -5.22205,-8.6445 13.516,-22.8627 20.6229,-29.3989 z"
       id="path24862"
       style="fill:#ffffff;fill-opacity:1" />
  </g>
</svg>
